<?xml version="1.0" standalone="no"?>
<!DOCTYPE svg PUBLIC "-//W3C//DTD SVG 20010904//EN"
 "http://www.w3.org/TR/2001/REC-SVG-20010904/DTD/svg10.dtd">
<svg version="1.0" xmlns="http://www.w3.org/2000/svg"
 width="1024.000000pt" height="1024.000000pt" viewBox="0 0 1024.000000 1024.000000"
 preserveAspectRatio="xMidYMid meet">

<g transform="translate(0.000000,1024.000000) scale(0.100000,-0.100000)"
fill="#000000" stroke="none">
<path d="M0 5120 l0 -5120 5120 0 5120 0 0 5120 0 5120 -5120 0 -5120 0 0
-5120z m7055 2688 c115 -32 270 -105 365 -171 103 -73 244 -221 306 -320 67
-108 105 -201 144 -356 35 -140 39 -197 13 -205 -25 -6 -212 -11 -374 -8
l-137 2 -4 53 c-7 83 -62 199 -126 269 -95 102 -194 162 -337 204 -56 16 -170
18 -1710 20 -1111 2 -1674 0 -1725 -8 -300 -41 -522 -234 -576 -500 -13 -67
-15 -161 -12 -663 3 -582 3 -586 -17 -581 -11 3 -132 6 -268 6 l-248 0 2 553
c1 303 5 604 10 667 14 207 76 395 183 554 103 155 242 287 392 374 93 54 155
78 289 113 l110 28 1810 -2 1810 -2 100 -27z m-2305 -1140 c0 -17 145 -317
440 -913 136 -275 291 -592 346 -705 100 -209 358 -722 567 -1131 64 -125 114
-228 112 -231 -2 -2 -35 0 -72 4 -37 4 -185 7 -328 6 l-260 -3 -87 165 c-47
91 -184 361 -303 600 -119 239 -296 593 -392 786 -117 233 -196 380 -239 440
-35 49 -64 95 -64 102 0 6 -4 12 -10 12 -5 0 -10 -10 -10 -22 -1 -30 -33 -100
-76 -165 -19 -29 -79 -138 -133 -241 -147 -282 -203 -386 -212 -397 -4 -6 -52
-96 -107 -200 -196 -375 -215 -411 -252 -475 -21 -36 -101 -189 -177 -340
l-140 -275 -332 -2 c-258 -2 -331 0 -331 10 0 12 372 759 389 781 4 6 59 110
121 231 62 121 131 254 153 295 22 41 119 233 217 425 162 320 232 449 387
713 64 110 102 190 155 331 21 58 52 125 68 151 l29 46 233 2 c128 2 234 5
237 7 10 11 71 4 71 -7z m2350 -7 c140 -6 281 -6 330 -1 46 5 86 7 88 6 2 -2
-1 -12 -7 -23 -6 -10 -22 -43 -35 -73 -14 -30 -52 -102 -84 -160 -32 -58 -98
-177 -146 -264 -48 -88 -95 -171 -105 -185 -10 -14 -39 -66 -64 -116 -25 -49
-65 -124 -89 -165 -24 -41 -53 -95 -65 -120 -11 -25 -66 -137 -121 -250 -55
-113 -116 -239 -135 -280 -19 -41 -90 -190 -157 -330 -67 -140 -144 -304 -171
-364 -28 -61 -59 -125 -71 -144 l-21 -34 -22 59 c-27 71 -65 148 -112 226 -19
31 -53 99 -75 150 -22 50 -63 132 -92 182 -83 140 -98 172 -83 178 7 3 39 63
71 133 32 71 70 147 85 169 15 22 47 78 72 125 24 47 76 144 115 215 39 72 83
153 96 180 14 28 55 110 92 183 36 72 66 134 66 136 0 8 237 461 274 523 l37
63 42 -5 c23 -3 152 -9 287 -14z m790 -40 c14 -27 15 -47 12 -594 l-2 -489
-227 6 c-126 4 -279 9 -341 12 l-112 6 31 56 c17 32 53 98 79 148 26 49 58
108 72 130 31 49 133 243 259 489 80 158 104 196 139 223 47 37 75 41 90 13z
m-4870 -1686 c0 -1 -30 -57 -66 -125 -36 -69 -115 -224 -174 -345 -168 -340
-404 -747 -423 -728 -4 3 -7 275 -7 603 l0 598 335 -2 c184 0 335 -1 335 -1z
m1628 -7 c6 -7 67 -119 137 -248 70 -129 133 -242 140 -250 7 -8 26 -38 43
-66 l30 -51 -181 -6 c-99 -4 -335 -7 -524 -7 l-345 0 7 33 c9 47 98 222 281
554 l29 53 186 0 c137 0 189 -3 197 -12z m3038 2 l214 0 0 -707 0 -708 -25
-103 c-113 -468 -416 -749 -930 -864 -49 -11 -383 -13 -1816 -12 -1927 2
-1803 -2 -2004 61 -170 53 -354 175 -473 314 -69 80 -181 272 -221 379 -18 45
-61 197 -61 213 0 2 24 0 53 -5 28 -4 145 -8 259 -7 114 0 212 -2 216 -5 5 -3
28 -36 50 -74 57 -96 188 -219 283 -266 158 -77 1 -71 1914 -71 l1710 0 75 28
c107 39 174 82 255 162 83 82 144 190 176 312 19 73 20 104 18 448 -1 204 -1
493 0 644 l1 274 46 -7 c26 -3 143 -6 260 -6z"/>
</g>
</svg>
